<svg width="30" height="30" viewBox="0 0 30 30" fill="none" xmlns="http://www.w3.org/2000/svg">
<g clip-path="url(#clip0_1_197)">
<path d="M21.2308 4H26.1538C26.4803 4 26.7933 4.12967 27.0241 4.36048C27.2549 4.5913 27.3846 4.90435 27.3846 5.23077V24.9231C27.3846 25.2495 27.2549 25.5626 27.0241 25.7934C26.7933 26.0242 26.4803 26.1538 26.1538 26.1538H4C3.67358 26.1538 3.36052 26.0242 3.12971 25.7934C2.8989 25.5626 2.76923 25.2495 2.76923 24.9231V5.23077C2.76923 4.90435 2.8989 4.5913 3.12971 4.36048C3.36052 4.12967 3.67358 4 4 4H8.92307V1.53846H11.3846V4H18.7692V1.53846H21.2308V4ZM5.23076 11.3846V23.6923H24.9231V11.3846H5.23076ZM7.6923 16.3077H13.8461V21.2308H7.6923V16.3077Z" fill="#FFBB11"/>
</g>
<defs>
<clipPath id="clip0_1_197">
<rect width="29.5385" height="29.5385" fill="white" transform="translate(0.307678 0.307709)"/>
</clipPath>
</defs>
</svg>
