<svg width="180" height="41" viewBox="0 0 180 41" fill="none" xmlns="http://www.w3.org/2000/svg">
<path d="M48.4104 28.7865C48.4104 29.1538 48.3864 29.5212 48.3385 29.8886H39.4498C39.4977 30.6233 39.6974 31.1744 40.0488 31.5417C40.4161 31.8931 40.8793 32.0688 41.4384 32.0688C42.221 32.0688 42.7801 31.7174 43.1155 31.0146H48.1229C47.9152 31.941 47.5079 32.7716 46.901 33.5063C46.31 34.2251 45.5593 34.7921 44.6489 35.2074C43.7384 35.6227 42.7322 35.8303 41.6301 35.8303C40.3043 35.8303 39.1224 35.5508 38.0842 34.9918C37.0619 34.4327 36.2553 33.6341 35.6643 32.5959C35.0893 31.5577 34.8018 30.3358 34.8018 28.9302C34.8018 27.5246 35.0893 26.3107 35.6643 25.2885C36.2393 24.2503 37.038 23.4517 38.0602 22.8926C39.0984 22.3336 40.2884 22.0541 41.6301 22.0541C42.9558 22.0541 44.1297 22.3256 45.152 22.8687C46.1742 23.4117 46.9729 24.1944 47.5479 25.2166C48.1229 26.2229 48.4104 27.4128 48.4104 28.7865ZM43.6186 27.6125C43.6186 27.0375 43.427 26.5903 43.0436 26.2708C42.6603 25.9354 42.1811 25.7677 41.6061 25.7677C41.0311 25.7677 40.5599 25.9274 40.1925 26.2468C39.8252 26.5503 39.5856 27.0055 39.4738 27.6125H43.6186ZM49.5654 28.9302C49.5654 27.5406 49.853 26.3267 50.428 25.2885C51.003 24.2503 51.8016 23.4517 52.8238 22.8926C53.8621 22.3336 55.044 22.0541 56.3697 22.0541C58.0788 22.0541 59.5163 22.5252 60.6823 23.4676C61.8483 24.394 62.599 25.6958 62.9344 27.3729H57.951C57.6635 26.4944 57.1045 26.0552 56.2739 26.0552C55.6829 26.0552 55.2117 26.3027 54.8603 26.7979C54.5249 27.2771 54.3572 27.9878 54.3572 28.9302C54.3572 29.8726 54.5249 30.5914 54.8603 31.0865C55.2117 31.5817 55.6829 31.8292 56.2739 31.8292C57.1204 31.8292 57.6795 31.39 57.951 30.5115H62.9344C62.599 32.1726 61.8483 33.4744 60.6823 34.4168C59.5163 35.3592 58.0788 35.8303 56.3697 35.8303C55.044 35.8303 53.8621 35.5508 52.8238 34.9918C51.8016 34.4327 51.003 33.6341 50.428 32.5959C49.853 31.5577 49.5654 30.3358 49.5654 28.9302ZM71.1384 35.8303C69.7967 35.8303 68.5908 35.5508 67.5207 34.9918C66.4665 34.4327 65.6359 33.6341 65.0289 32.5959C64.422 31.5577 64.1185 30.3358 64.1185 28.9302C64.1185 27.5406 64.422 26.3267 65.0289 25.2885C65.6519 24.2503 66.4904 23.4517 67.5446 22.8926C68.6148 22.3336 69.8207 22.0541 71.1624 22.0541C72.5041 22.0541 73.702 22.3336 74.7562 22.8926C75.8264 23.4517 76.6649 24.2503 77.2719 25.2885C77.8948 26.3267 78.2063 27.5406 78.2063 28.9302C78.2063 30.3198 77.8948 31.5417 77.2719 32.5959C76.6649 33.6341 75.8264 34.4327 74.7562 34.9918C73.686 35.5508 72.4801 35.8303 71.1384 35.8303ZM71.1384 31.7574C71.7933 31.7574 72.3364 31.5178 72.7676 31.0386C73.2149 30.5434 73.4385 29.8407 73.4385 28.9302C73.4385 28.0198 73.2149 27.325 72.7676 26.8458C72.3364 26.3666 71.8013 26.127 71.1624 26.127C70.5235 26.127 69.9884 26.3666 69.5571 26.8458C69.1259 27.325 68.9103 28.0198 68.9103 28.9302C68.9103 29.8566 69.1179 30.5594 69.5332 31.0386C69.9485 31.5178 70.4836 31.7574 71.1384 31.7574ZM88.9096 22.102C90.459 22.102 91.6889 22.6211 92.5993 23.6593C93.5097 24.6815 93.9649 26.0711 93.9649 27.8281V35.6626H89.269V28.451C89.269 27.6844 89.0694 27.0854 88.6701 26.6541C88.2707 26.2069 87.7357 25.9833 87.0648 25.9833C86.362 25.9833 85.811 26.2069 85.4117 26.6541C85.0123 27.0854 84.8127 27.6844 84.8127 28.451V35.6626H80.1168V22.2218H84.8127V24.1385C85.228 23.5315 85.787 23.0444 86.4898 22.677C87.1926 22.2936 87.9992 22.102 88.9096 22.102ZM102.795 35.8303C101.453 35.8303 100.247 35.5508 99.1771 34.9918C98.1229 34.4327 97.2923 33.6341 96.6854 32.5959C96.0784 31.5577 95.7749 30.3358 95.7749 28.9302C95.7749 27.5406 96.0784 26.3267 96.6854 25.2885C97.3083 24.2503 98.1469 23.4517 99.201 22.8926C100.271 22.3336 101.477 22.0541 102.819 22.0541C104.161 22.0541 105.358 22.3336 106.413 22.8926C107.483 23.4517 108.321 24.2503 108.928 25.2885C109.551 26.3267 109.863 27.5406 109.863 28.9302C109.863 30.3198 109.551 31.5417 108.928 32.5959C108.321 33.6341 107.483 34.4327 106.413 34.9918C105.342 35.5508 104.137 35.8303 102.795 35.8303ZM102.795 31.7574C103.45 31.7574 103.993 31.5178 104.424 31.0386C104.871 30.5434 105.095 29.8407 105.095 28.9302C105.095 28.0198 104.871 27.325 104.424 26.8458C103.993 26.3666 103.458 26.127 102.819 26.127C102.18 26.127 101.645 26.3666 101.214 26.8458C100.782 27.325 100.567 28.0198 100.567 28.9302C100.567 29.8566 100.774 30.5594 101.19 31.0386C101.605 31.5178 102.14 31.7574 102.795 31.7574Z" fill="#263238"/>
<path d="M134.385 23.5302L133.917 23.9691L133.921 23.973L134.385 23.5302ZM135.847 35.5575V36.1992H136.488V35.5575H135.847ZM131.151 35.5575H130.509V36.1992H131.151V35.5575ZM130.552 26.6688L130.098 27.1226L130.552 26.6688ZM127.293 26.6688L127.747 27.1226H127.747L127.293 26.6688ZM126.694 35.5575V36.1992H127.336V35.5575H126.694ZM121.998 35.5575H121.357V36.1992H121.998V35.5575ZM121.399 26.6688L120.936 27.1133L120.946 27.1226L121.399 26.6688ZM117.542 35.5575V36.1992H118.184V35.5575H117.542ZM112.846 35.5575H112.204V36.1992H112.846V35.5575ZM112.846 22.1166V21.4749H112.204V22.1166H112.846ZM117.542 22.1166H118.184V21.4749H117.542V22.1166ZM117.542 23.8896H116.9V25.8743L118.062 24.2653L117.542 23.8896ZM119.147 22.5239L119.44 23.0951L119.445 23.0924L119.147 22.5239ZM124.083 22.6437L123.768 23.2031L123.773 23.2058L124.083 22.6437ZM125.928 24.4646L125.37 24.783L125.891 25.6948L126.465 24.8152L125.928 24.4646ZM127.82 22.6916L128.139 23.2489L128.147 23.2439L127.82 22.6916ZM130.408 22.6386C131.963 22.6386 133.105 23.1028 133.917 23.9691L134.853 23.0913C133.749 21.9132 132.238 21.3551 130.408 21.3551V22.6386ZM133.921 23.973C134.754 24.8474 135.205 26.0708 135.205 27.723H136.488C136.488 25.8293 135.965 24.2575 134.85 23.0874L133.921 23.973ZM135.205 27.723V35.5575H136.488V27.723H135.205ZM135.847 34.9157H131.151V36.1992H135.847V34.9157ZM131.792 35.5575V28.3459H130.509V35.5575H131.792ZM131.792 28.3459C131.792 27.5057 131.556 26.7652 131.005 26.215L130.098 27.1226C130.346 27.371 130.509 27.7486 130.509 28.3459H131.792ZM131.005 26.215C130.461 25.6702 129.74 25.4281 128.922 25.4281V26.7116C129.478 26.7116 129.844 26.8688 130.098 27.1226L131.005 26.215ZM128.922 25.4281C128.105 25.4281 127.384 25.6702 126.839 26.215L127.747 27.1226C128.001 26.8688 128.367 26.7116 128.922 26.7116V25.4281ZM126.839 26.215C126.289 26.7652 126.053 27.5057 126.053 28.3459H127.336C127.336 27.7486 127.499 27.371 127.747 27.1226L126.839 26.215ZM126.053 28.3459V35.5575H127.336V28.3459H126.053ZM126.694 34.9157H121.998V36.1992H126.694V34.9157ZM122.64 35.5575V28.3459H121.357V35.5575H122.64ZM122.64 28.3459C122.64 27.5057 122.403 26.7652 121.853 26.215L120.946 27.1226C121.194 27.371 121.357 27.7486 121.357 28.3459H122.64ZM121.862 26.2244C121.33 25.6699 120.611 25.4281 119.794 25.4281V26.7116C120.351 26.7116 120.702 26.869 120.936 27.1132L121.862 26.2244ZM119.794 25.4281C118.965 25.4281 118.235 25.6674 117.687 26.215L118.595 27.1226C118.846 26.8715 119.218 26.7116 119.794 26.7116V25.4281ZM117.687 26.215C117.137 26.7652 116.9 27.5057 116.9 28.3459H118.184C118.184 27.7486 118.346 27.371 118.595 27.1226L117.687 26.215ZM116.9 28.3459V35.5575H118.184V28.3459H116.9ZM117.542 34.9157H112.846V36.1992H117.542V34.9157ZM113.488 35.5575V22.1166H112.204V35.5575H113.488ZM112.846 22.7584H117.542V21.4749H112.846V22.7584ZM116.9 22.1166V23.8896H118.184V22.1166H116.9ZM118.062 24.2653C118.416 23.7757 118.872 23.3861 119.44 23.0951L118.855 21.9528C118.113 22.3326 117.499 22.8535 117.022 23.5138L118.062 24.2653ZM119.445 23.0924C120.012 22.7955 120.674 22.6386 121.447 22.6386V21.3551C120.496 21.3551 119.624 21.5496 118.85 21.9555L119.445 23.0924ZM121.447 22.6386C122.342 22.6386 123.109 22.8324 123.768 23.2031L124.397 22.0844C123.523 21.5926 122.534 21.3551 121.447 21.3551V22.6386ZM123.773 23.2058C124.451 23.5796 124.981 24.1018 125.37 24.783L126.485 24.1462C125.98 23.2621 125.279 22.5704 124.393 22.0817L123.773 23.2058ZM126.465 24.8152C126.887 24.1681 127.442 23.647 128.139 23.2488L127.502 22.1345C126.633 22.6308 125.926 23.2916 125.39 24.114L126.465 24.8152ZM128.147 23.2439C128.827 22.8415 129.576 22.6386 130.408 22.6386V21.3551C129.355 21.3551 128.379 21.6154 127.493 22.1394L128.147 23.2439ZM138.779 20.1999L138.34 20.6686L138.348 20.6759L138.356 20.6829L138.779 20.1999ZM138.779 16.7259L138.348 16.2503L138.34 16.2573L138.779 16.7259ZM142.756 16.7259L142.317 17.1946L142.325 17.2015L142.756 16.7259ZM142.756 20.1999L143.186 20.6762L143.187 20.6755L142.756 20.1999ZM143.115 22.1166H143.757V21.4749H143.115V22.1166ZM143.115 35.5575V36.1992H143.757V35.5575H143.115ZM138.419 35.5575H137.778V36.1992H138.419V35.5575ZM138.419 22.1166V21.4749H137.778V22.1166H138.419ZM140.791 20.229C140.08 20.229 139.571 20.0403 139.201 19.717L138.356 20.6829C139.009 21.254 139.841 21.5125 140.791 21.5125V20.229ZM139.217 19.7313C138.854 19.3912 138.678 18.9867 138.678 18.4749H137.394C137.394 19.3367 137.713 20.0823 138.34 20.6686L139.217 19.7313ZM138.678 18.4749C138.678 17.9424 138.857 17.5315 139.217 17.1946L138.34 16.2573C137.71 16.8467 137.394 17.6018 137.394 18.4749H138.678ZM139.21 17.2015C139.58 16.8662 140.086 16.6729 140.791 16.6729V15.3894C139.836 15.3894 139 15.6592 138.348 16.2504L139.21 17.2015ZM140.791 16.6729C141.478 16.6729 141.964 16.8642 142.317 17.1946L143.194 16.2573C142.557 15.6612 141.734 15.3894 140.791 15.3894V16.6729ZM142.325 17.2015C142.699 17.5404 142.881 17.9494 142.881 18.4749H144.164C144.164 17.5949 143.835 16.8378 143.187 16.2504L142.325 17.2015ZM142.881 18.4749C142.881 18.9797 142.702 19.3823 142.325 19.7244L143.187 20.6755C143.831 20.0912 144.164 19.3438 144.164 18.4749H142.881ZM142.326 19.7237C141.973 20.0421 141.484 20.229 140.791 20.229V21.5125C141.728 21.5125 142.548 21.2523 143.186 20.6762L142.326 19.7237ZM142.473 22.1166V35.5575H143.757V22.1166H142.473ZM143.115 34.9157H138.419V36.1992H143.115V34.9157ZM139.061 35.5575V22.1166H137.778V35.5575H139.061ZM138.419 22.7584H143.115V21.4749H138.419V22.7584ZM145.765 25.1834L145.19 24.8999L145.186 24.9071L145.765 25.1834ZM147.826 22.7875L147.481 22.246L147.477 22.249L147.826 22.7875ZM153.145 22.5L152.837 23.0629L153.145 22.5ZM154.702 23.9854L154.149 24.3114L155.344 26.3369V23.9854H154.702ZM154.702 22.1166V21.4749H154.06V22.1166H154.702ZM159.398 22.1166H160.04V21.4749H159.398V22.1166ZM159.398 35.5575V36.1992H160.04V35.5575H159.398ZM154.702 35.5575H154.06V36.1992H154.702V35.5575ZM154.702 33.6887H155.344V31.3372L154.149 33.3627L154.702 33.6887ZM153.121 35.1742L152.818 34.6082L152.813 34.6113L153.121 35.1742ZM147.826 34.8867L147.477 35.4252L147.481 35.4281L147.826 34.8867ZM145.765 32.4908L145.184 32.7637L145.19 32.7742L145.765 32.4908ZM153.983 26.7886L153.515 27.2271L153.522 27.2349L153.983 26.7886ZM150.509 26.7886L150.971 27.2347L150.978 27.227L150.509 26.7886ZM150.509 30.8855L150.034 31.3165L150.041 31.324L150.509 30.8855ZM153.983 30.8855L153.522 30.4392L153.515 30.4471L153.983 30.8855ZM145.664 28.8251C145.664 27.5115 145.898 26.3955 146.345 25.4596L145.186 24.9071C144.642 26.0477 144.381 27.3595 144.381 28.8251H145.664ZM146.341 25.4668C146.808 24.5191 147.421 23.8144 148.175 23.326L147.477 22.249C146.505 22.8786 145.745 23.7712 145.19 24.8999L146.341 25.4668ZM148.17 23.3289C148.943 22.8373 149.797 22.5907 150.749 22.5907V21.3072C149.56 21.3072 148.466 21.6196 147.481 22.2461L148.17 23.3289ZM150.749 22.5907C151.59 22.5907 152.278 22.7571 152.837 23.0629L153.453 21.9371C152.67 21.5081 151.76 21.3072 150.749 21.3072V22.5907ZM152.837 23.0629C153.412 23.3781 153.844 23.7938 154.149 24.3114L155.255 23.6594C154.825 22.9312 154.219 22.3566 153.453 21.9371L152.837 23.0629ZM155.344 23.9854V22.1166H154.06V23.9854H155.344ZM154.702 22.7584H159.398V21.4749H154.702V22.7584ZM158.756 22.1166V35.5575H160.04V22.1166H158.756ZM159.398 34.9157H154.702V36.1992H159.398V34.9157ZM155.344 35.5575V33.6887H154.06V35.5575H155.344ZM154.149 33.3627C153.846 33.8764 153.409 34.292 152.818 34.6083L153.423 35.74C154.206 35.3216 154.823 34.7468 155.255 34.0147L154.149 33.3627ZM152.813 34.6113C152.253 34.9179 151.572 35.0835 150.749 35.0835V36.367C151.747 36.367 152.647 36.1652 153.429 35.737L152.813 34.6113ZM150.749 35.0835C149.797 35.0835 148.943 34.8368 148.17 34.3452L147.481 35.4281C148.466 36.0545 149.56 36.367 150.749 36.367V35.0835ZM148.175 34.3481C147.421 33.8597 146.808 33.155 146.341 32.2073L145.19 32.7742C145.745 33.903 146.505 34.7955 147.477 35.4252L148.175 34.3481ZM146.346 32.2179C145.898 31.264 145.664 30.1384 145.664 28.8251H144.381C144.381 30.291 144.642 31.6092 145.185 32.7636L146.346 32.2179ZM155.344 28.8251C155.344 27.8401 155.067 26.9854 154.444 26.3423L153.522 27.2349C153.858 27.582 154.06 28.0851 154.06 28.8251H155.344ZM154.452 26.3502C153.866 25.7234 153.12 25.4041 152.258 25.4041V26.6876C152.77 26.6876 153.175 26.8635 153.515 27.227L154.452 26.3502ZM152.258 25.4041C151.385 25.4041 150.63 25.7201 150.041 26.3502L150.978 27.227C151.315 26.8668 151.726 26.6876 152.258 26.6876V25.4041ZM150.048 26.3426C149.436 26.9756 149.173 27.8348 149.173 28.8251H150.456C150.456 28.0584 150.656 27.5599 150.971 27.2346L150.048 26.3426ZM149.173 28.8251C149.173 29.8054 149.439 30.6598 150.034 31.3165L150.985 30.4546C150.654 30.089 150.456 29.5698 150.456 28.8251H149.173ZM150.041 31.324C150.63 31.9541 151.385 32.27 152.258 32.27V30.9865C151.726 30.9865 151.315 30.8073 150.978 30.4471L150.041 31.324ZM152.258 32.27C153.12 32.27 153.866 31.9507 154.452 31.324L153.515 30.4471C153.175 30.8107 152.77 30.9865 152.258 30.9865V32.27ZM154.444 31.3318C155.069 30.6865 155.344 29.8223 155.344 28.8251H154.06C154.06 29.5848 153.856 30.0942 153.522 30.4393L154.444 31.3318ZM175.826 22.1166H176.468V21.4749H175.826V22.1166ZM175.826 35.5575V36.1992H176.468V35.5575H175.826ZM171.106 35.5575H170.465V36.1992H171.106V35.5575ZM171.106 33.6408H171.748V31.4977L170.57 33.2881L171.106 33.6408ZM169.453 35.1262L169.751 35.6951L169.76 35.6896L169.453 35.1262ZM163.32 34.1439L162.833 34.5629L162.84 34.5708L163.32 34.1439ZM161.978 22.1166V21.4749H161.336V22.1166H161.978ZM166.65 22.1166H167.292V21.4749H166.65V22.1166ZM167.249 31.1491L166.77 31.5765L166.778 31.5855L166.787 31.5942L167.249 31.1491ZM170.507 31.1491L170.978 31.5852L170.986 31.5765L170.507 31.1491ZM171.106 22.1166V21.4749H170.465V22.1166H171.106ZM175.184 22.1166V35.5575H176.468V22.1166H175.184ZM175.826 34.9157H171.106V36.1992H175.826V34.9157ZM171.748 35.5575V33.6408H170.465V35.5575H171.748ZM170.57 33.2881C170.234 33.7984 169.766 34.2247 169.146 34.5628L169.76 35.6896C170.546 35.2611 171.18 34.6971 171.642 33.9935L170.57 33.2881ZM169.156 34.5575C168.558 34.8702 167.856 35.0355 167.033 35.0355V36.319C168.032 36.319 168.943 36.117 169.75 35.695L169.156 34.5575ZM167.033 35.0355C165.622 35.0355 164.57 34.5823 163.799 33.7171L162.84 34.5708C163.891 35.75 165.314 36.319 167.033 36.319V35.0355ZM163.806 33.7251C163.038 32.8341 162.62 31.5925 162.62 29.9272H161.336C161.336 31.8078 161.812 33.3774 162.834 34.5628L163.806 33.7251ZM162.62 29.9272V22.1166H161.336V29.9272H162.62ZM161.978 22.7584H166.65V21.4749H161.978V22.7584ZM166.008 22.1166V29.3282H167.292V22.1166H166.008ZM166.008 29.3282C166.008 30.2073 166.239 30.9818 166.77 31.5765L167.728 30.7217C167.46 30.4219 167.292 29.9825 167.292 29.3282H166.008ZM166.787 31.5942C167.338 32.1668 168.056 32.4377 168.878 32.4377V31.1542C168.359 31.1542 167.99 30.9938 167.711 30.7039L166.787 31.5942ZM168.878 32.4377C169.711 32.4377 170.437 32.1699 170.978 31.5851L170.036 30.7131C169.779 30.9908 169.419 31.1542 168.878 31.1542V32.4377ZM170.986 31.5765C171.517 30.9818 171.748 30.2073 171.748 29.3282H170.465C170.465 29.9825 170.296 30.4219 170.029 30.7217L170.986 31.5765ZM171.748 29.3282V22.1166H170.465V29.3282H171.748ZM171.106 22.7584H175.826V21.4749H171.106V22.7584Z" fill="#263238"/>
<path d="M12.571 12.2844C12.571 13.0893 12.0859 13.7428 11.4873 13.7428C10.8887 13.7428 10.4034 13.0896 10.4034 12.2844C10.4032 11.4787 12.571 11.4787 12.571 12.2844Z" fill="#FFBB11"/>
<path d="M15.067 15.2679C14.99 15.0681 14.7643 14.9689 14.5659 15.0464C13.388 15.5027 12.1685 15.2046 11.8481 14.3803C11.8472 14.3775 11.8449 14.3758 11.8441 14.3729C11.8321 14.3444 11.8127 14.321 11.7948 14.2957C11.7828 14.2797 11.7748 14.2609 11.7609 14.2469C11.746 14.2327 11.7269 14.2236 11.7101 14.2119C11.6853 14.1939 11.662 14.1748 11.634 14.1631C11.6315 14.162 11.63 14.16 11.6275 14.1586C11.6104 14.152 11.5924 14.1537 11.5747 14.1492C11.5454 14.1423 11.5166 14.1338 11.4861 14.1338C11.4579 14.1338 11.4314 14.1423 11.4043 14.1486C11.3852 14.1532 11.3656 14.1512 11.347 14.1583C11.3442 14.1592 11.3425 14.1614 11.3396 14.1629C11.312 14.1743 11.2886 14.1936 11.2641 14.211C11.2473 14.223 11.2282 14.2318 11.2134 14.2458C11.1985 14.2606 11.19 14.28 11.1783 14.2974C11.1606 14.3216 11.1418 14.3444 11.1301 14.3718C11.129 14.3746 11.127 14.3763 11.1256 14.3792C10.8052 15.2034 9.5859 15.5022 8.40857 15.0455C8.20906 14.9683 7.98391 15.0669 7.90695 15.267C7.82971 15.4665 7.92861 15.6908 8.12812 15.768C8.58613 15.9462 9.05154 16.03 9.49275 16.03C10.3013 16.03 11.0304 15.7484 11.4867 15.2431C11.943 15.7484 12.6723 16.03 13.4803 16.03C13.9224 16.03 14.3878 15.9462 14.8455 15.768C15.0462 15.6917 15.1451 15.4674 15.067 15.2678L15.067 15.2679Z" fill="#FFBB11"/>
<path d="M10.4054 10.9543H10.4005C10.0799 10.9514 9.82167 10.6895 9.82396 10.3683C9.82966 9.65947 8.93702 9.05349 7.87417 9.04525C6.81109 9.04411 5.91015 9.62867 5.90387 10.3372C5.90102 10.6567 5.64166 10.9138 5.32274 10.9138H5.31789C4.99669 10.9112 4.73903 10.6487 4.74132 10.3275C4.75272 8.97426 6.14556 7.88208 7.85224 7.88208H7.88359C9.60537 7.89605 10.9974 9.01498 10.9865 10.3773C10.9839 10.6971 10.7246 10.9542 10.4054 10.9542L10.4054 10.9543Z" fill="#FFBB11"/>
<path d="M17.6353 10.9543H17.6305C17.3092 10.9515 17.0507 10.6896 17.0536 10.3683C17.0593 9.65952 16.1661 9.05355 15.1041 9.04531C14.0396 9.04417 13.1386 9.62873 13.1329 10.3373C13.1301 10.6568 12.8699 10.9138 12.5515 10.9138H12.5467C12.2263 10.9113 11.9678 10.6488 11.9701 10.3276C11.982 8.96579 13.396 7.87192 15.112 7.88243C16.8343 7.8964 18.2264 9.01533 18.2158 10.3777C18.2138 10.6972 17.9541 10.9543 17.6352 10.9543L17.6353 10.9543Z" fill="#FFBB11"/>
<path d="M27.2233 10.2145C26.9275 9.36626 26.3985 9.23945 26.1095 9.23945C25.4226 9.23945 24.9187 9.86505 24.8129 10.8019C24.549 10.7292 24.2569 10.7255 23.9921 10.7913C23.8704 9.88411 23.324 9.23941 22.6275 9.23941C21.7963 9.23941 21.2374 10.1742 21.2374 11.5648V18.2865C21.2754 18.3062 21.3178 18.3233 21.3543 18.3441C21.8431 18.6183 22.1461 19.135 22.1461 19.6954C22.1461 19.8744 22.1319 20.1682 22.1139 20.5347C22.5269 20.1089 22.7877 19.4984 22.7877 18.8187V12.2944C22.982 12.5339 23.2539 12.6698 23.5566 12.6698C23.7601 12.6698 24.0654 12.6051 24.3823 12.2939C24.3948 12.2939 24.4122 12.297 24.4302 12.3144C24.732 12.6085 25.0352 12.6704 25.2362 12.6704C25.4508 12.6704 25.6808 12.6014 25.8752 12.4387V21.8319C25.8752 22.5142 25.6338 23.6056 25.357 24.1659C25.1777 24.5307 24.4988 24.9619 23.8929 24.9713L23.1627 24.9818C22.8481 24.9875 22.4892 25.0015 22.1307 25.0223C22.1458 25.1289 22.1629 25.2218 22.18 25.3019H22.3476C23.0826 25.3019 23.7019 25.8192 23.8561 26.5224L23.9174 26.5215C25.0709 26.503 26.2884 25.7856 26.7479 24.8505C27.1275 24.0796 27.4253 22.7537 27.4253 21.8322L27.4256 11.5649C27.4259 11.0676 27.3541 10.5881 27.2233 10.2145L27.2233 10.2145Z" fill="#FFBB11"/>
<path d="M14.6511 33.6765C14.4371 33.6765 14.2638 33.5032 14.2638 33.2883C14.2638 29.9876 16.3039 27.3019 18.8117 27.3019C19.0263 27.3019 19.1993 27.4755 19.1993 27.6895C19.1993 27.9033 19.026 28.0768 18.8117 28.0768C16.7317 28.0768 15.0393 30.4151 15.0393 33.288C15.039 33.5032 14.8649 33.6765 14.6511 33.6765H14.6511Z" fill="#FFBB11"/>
<path d="M12.3119 37.5931C10.115 37.5931 7.7463 36.2964 6.13024 34.2075C3.59251 30.9301 3.57967 26.6741 6.10259 24.7208C6.93284 24.0773 7.96913 23.7373 9.09838 23.7373C11.2949 23.7373 13.6643 25.0339 15.2811 27.1204C17.8194 30.3989 17.8308 34.656 15.3076 36.6099C14.4774 37.2529 13.4411 37.5933 12.3118 37.5933L12.3119 37.5931Z" fill="#FFBB11"/>
<path d="M10.9074 18.6884C10.4525 18.6884 10.1093 18.9825 10.1093 19.3733C10.1093 19.784 10.4587 20.1157 10.8284 20.4671C10.8916 20.5267 10.9606 20.5945 11.0319 20.6644C11.1952 20.8245 11.4902 21.1141 11.6096 21.1771C11.7276 21.1161 12.0211 20.8325 12.1828 20.6757C12.2537 20.6079 12.323 20.5412 12.3865 20.4819C12.7556 20.1371 13.1039 19.813 13.1039 19.4023C13.1039 18.9503 12.6818 18.7057 12.2848 18.7057C12.065 18.7057 11.876 18.7727 11.7372 18.8978L11.607 19.0173L11.477 18.8976C11.3322 18.7647 11.1242 18.6884 10.9073 18.6884L10.9074 18.6884Z" fill="#FFBB11"/>
<path d="M22.7186 30.0815C23.0458 29.564 23.2461 29.1975 23.2461 28.2005C23.2461 27.6453 23.229 27.4957 23.188 27.1821C23.1746 27.0784 23.1581 26.9513 23.1378 26.7663C23.0948 26.3736 22.7625 26.0757 22.3672 26.0757H21.6627C21.3987 25.7565 21.1474 24.5296 21.3514 20.6218C21.3734 20.2111 21.3891 19.8858 21.3891 19.6943C21.3891 19.4142 21.2383 19.1565 20.9932 19.0186C20.7426 18.878 20.4306 18.7361 20.0789 18.5953C20.0806 18.5754 20.0851 18.5557 20.0851 18.5352V17.8098C20.0851 17.5348 19.9409 17.2951 19.7255 17.1569C21.0268 16.0168 21.1315 14.2526 21.1315 11.7844C21.1315 10.1182 20.7997 8.71796 20.147 7.5796C20.1499 7.56648 20.1556 7.55508 20.1576 7.54112C20.6954 4.63201 20.3577 1.18225 17.7954 0.226579C15.7638 -0.529828 13.689 0.609919 11.6192 3.6117C9.55037 0.610802 7.47515 -0.528953 5.44387 0.226871C2.8825 1.18225 2.54359 4.63201 3.08169 7.54141C3.08454 7.55737 3.09081 7.57134 3.09423 7.58644C2.44469 8.72306 2.11434 10.1213 2.11434 11.7844C2.11434 14.2871 2.31812 16.0185 3.5628 17.1346C3.32424 17.2666 3.16065 17.5179 3.16065 17.8101V18.3587C3.08227 18.3533 3.00303 18.3468 2.92523 18.3468C2.25687 18.3468 1.64669 18.5408 1.16215 18.9085C-0.0955888 19.8596 -0.315645 21.7703 0.420551 23.7908C0.177439 24.7629 0.0548836 25.8423 0.0548836 27.037C0.0548836 28.1488 0.324218 29.2521 0.855797 30.322C0.485284 31.236 0.290334 32.253 0.290334 33.2876C0.290334 37.5229 3.62496 37.5229 5.22701 37.5229C6.63184 37.5229 8.04579 37.3881 9.01598 36.4949C10.0651 36.7773 11.0932 36.9198 12.0779 36.9198C12.8676 36.9198 13.6771 36.8263 14.4905 36.6399C15.4581 37.4069 16.7951 37.5226 18.1118 37.5226C19.7148 37.5226 23.0485 37.5226 23.0485 33.2879C23.0485 32.2898 22.8655 31.3025 22.517 30.4113C22.5894 30.2859 22.6563 30.1799 22.7187 30.0815L22.7186 30.0815ZM17.254 1.67998C18.6007 2.18217 18.9353 4.09315 18.8002 5.96254C17.4951 4.857 15.636 4.20712 13.243 4.0099C14.3859 2.47994 15.8466 1.15581 17.254 1.6799V1.67998ZM5.98489 1.67998C7.39454 1.15527 8.85438 2.48031 9.99757 4.01027C7.60372 4.20893 5.74492 4.86014 4.43954 5.9683C4.30302 4.09695 4.63676 2.18247 5.98489 1.68005V1.67998ZM11.6233 5.48828C17.1271 5.48828 19.5813 7.42975 19.5813 11.7848C19.5813 15.069 19.5793 16.5507 15.7171 17.0347L7.62773 17.035C3.6689 16.5385 3.66496 15.0091 3.66496 11.7851C3.66468 7.48877 6.19357 5.48827 11.6238 5.48827L11.6233 5.48828ZM1.5923 21.1031C1.66612 20.6773 1.83628 20.3424 2.09734 20.144C2.23301 20.042 2.39518 19.9744 2.57787 19.9356C2.68646 19.9123 2.80104 19.8972 2.92558 19.8972C3.41381 19.8972 3.96414 20.0699 4.52362 20.376C5.31906 20.8123 6.12968 21.5192 6.7943 22.3976C7.15513 22.8744 7.40337 23.3071 7.52451 23.6565C7.39711 23.6226 7.26145 23.6 7.11752 23.6C6.80258 23.6 6.52213 23.7129 6.30894 23.9261C5.92532 24.3103 5.94698 24.7726 6.04132 25.1408C5.91249 25.1072 5.77682 25.0824 5.63261 25.0824C5.31852 25.0824 5.03978 25.1952 4.82688 25.4084C4.45266 25.7824 4.46377 26.2298 4.55156 26.5926C4.07473 26.4626 3.56116 26.0291 2.99168 25.2758C2.58469 24.7389 2.2706 24.1956 2.04003 23.6718C1.60709 22.6908 1.47513 21.7799 1.59227 21.103L1.5923 21.1031ZM20.9538 30.6933C21.3097 31.4749 21.4981 32.3727 21.4981 33.2883C21.4981 35.5847 20.4539 35.9723 18.1122 35.9723C16.9796 35.9723 15.8515 35.8865 15.2783 35.2635C15.1295 35.1016 14.9221 35.0135 14.7083 35.0135C14.6408 35.0135 14.5744 35.0221 14.5082 35.0392C13.6848 35.2595 12.8677 35.3701 12.0779 35.3701C11.0998 35.3701 10.0632 35.2045 8.99718 34.877C8.68595 34.7815 8.34793 34.8904 8.15125 35.1503C7.63481 35.8335 6.60932 35.9728 5.22704 35.9728C2.88537 35.9728 1.84054 35.5852 1.84054 33.2889C1.84054 32.3435 2.04005 31.4209 2.41626 30.6243C2.52343 30.3988 2.51459 30.1363 2.39374 29.9177C1.87074 28.9726 1.60509 28.0039 1.60509 27.0383C1.60509 26.7065 1.61449 26.3747 1.63416 26.0438C1.67548 26.1003 1.71253 26.157 1.75471 26.2131C2.75912 27.5402 3.772 28.1857 4.85192 28.1857C5.16116 28.1857 5.47866 28.131 5.79643 28.0238C6.09483 27.9221 6.30175 27.6513 6.32142 27.3369C6.33168 27.1673 6.3066 27.0043 6.26669 26.8533C6.39495 26.8869 6.53119 26.9097 6.67454 26.9097C6.9892 26.9097 7.26794 26.7977 7.48057 26.5848C7.86676 26.1986 7.84253 25.7346 7.74648 25.3655C7.8753 25.3997 8.01125 25.4236 8.15547 25.4236C8.4137 25.4236 8.65282 25.3453 8.84834 25.1973C9.00537 25.0796 9.11112 24.9052 9.14446 24.7111C9.22142 24.2662 9.18665 23.7968 9.03787 23.3077L9.01707 23.239C8.83523 22.683 8.51259 22.1024 8.02981 21.464C7.46092 20.7127 6.81533 20.0743 6.13875 19.5735C6.39327 19.4786 6.66488 19.392 6.94791 19.3113H9.72707C9.76127 18.7319 10.2541 18.3012 10.9062 18.3012C11.1604 18.3012 11.4083 18.3765 11.6081 18.5104C11.7988 18.3844 12.0299 18.3189 12.2853 18.3189C12.8425 18.3189 13.4276 18.6677 13.4818 19.3105H17.1117C18.1964 19.5593 19.1501 19.86 19.8236 20.1643C19.8173 20.2781 19.8113 20.4046 19.8045 20.5414C19.6261 23.9518 19.6925 26.2519 20.5734 27.1785C20.8507 27.4715 21.2013 27.6262 21.5864 27.6262H21.6804C21.6915 27.7556 21.6958 27.9016 21.6958 28.2003C21.6958 28.7979 21.6345 28.894 21.4082 29.2528C21.2885 29.4424 21.1386 29.6789 20.9656 30.0264C20.8619 30.2353 20.8573 30.4813 20.9536 30.6933L20.9538 30.6933Z" fill="#FFBB11"/>
</svg>
